<?xml version="1.0" encoding="UTF-8"?>
<svg width="48px" height="32px" viewBox="0 0 48 32" version="1.1" xmlns="http://www.w3.org/2000/svg" xmlns:xlink="http://www.w3.org/1999/xlink">
    <!-- Generator: Sketch 55.2 (78181) - https://sketchapp.com -->
    <title>card-american</title>
    <desc>Created with Sketch.</desc>
    <g id="Page-1" stroke="none" stroke-width="1" fill="none" fill-rule="evenodd">
        <g id="MODULOS" transform="translate(-1512.000000, -5164.000000)" fill="#039DDE" fill-rule="nonzero">
            <path d="M1514.47917,5175.54167 L1516.33333,5175.54167 L1515.39583,5173.29167 L1514.47917,5175.54167 Z M1527.41667,5186.5 L1528.95833,5184.85417 L1527.5,5183.20833 L1524.10417,5183.20833 L1524.10417,5184.22917 L1527.0625,5184.22917 L1527.0625,5185.375 L1524.10417,5185.375 L1524.10417,5186.5 L1527.41667,5186.5 Z M1530.70833,5184.875 L1532.77083,5187.16667 L1532.77083,5182.64583 L1530.70833,5184.875 Z M1536.70833,5183.89583 C1536.70833,5183.39583 1536.33333,5183.20833 1535.875,5183.20833 L1534.125,5183.20833 L1534.125,5184.64583 L1535.85417,5184.64583 C1536.33333,5184.64583 1536.70833,5184.41667 1536.70833,5183.89583 Z M1542.72917,5183.8125 C1542.72917,5183.29167 1542.27083,5183.20833 1541.85417,5183.20833 L1540.14583,5183.20833 L1540.14583,5184.47917 L1541.83333,5184.47917 C1542.29167,5184.47917 1542.72917,5184.375 1542.72917,5183.8125 Z M1536.9375,5174.10417 C1536.9375,5173.58333 1536.47917,5173.5 1536.0625,5173.5 L1534.35417,5173.5 L1534.35417,5174.75 L1536.04167,5174.75 C1536.5,5174.75 1536.9375,5174.64583 1536.9375,5174.10417 Z M1546.5,5175.54167 L1548.35417,5175.54167 L1547.4375,5173.29167 L1546.5,5175.54167 Z M1526.5625,5172.3125 L1526.5625,5177.95833 L1525.1875,5177.95833 L1525.1875,5173.54167 L1523.22917,5177.95833 L1522.04167,5177.95833 L1520.08333,5173.54167 L1520.08333,5177.95833 L1517.33333,5177.95833 L1516.8125,5176.70833 L1514,5176.70833 L1513.47917,5177.95833 L1512.02083,5177.95833 L1514.4375,5172.3125 L1516.4375,5172.3125 L1518.72917,5177.66667 L1518.72917,5172.3125 L1520.9375,5172.3125 L1522.70833,5176.14583 L1524.3125,5172.3125 L1526.5625,5172.3125 Z M1538.14583,5183.89583 C1538.14583,5186.16667 1535.66667,5185.79167 1534.125,5185.79167 L1534.125,5187.6875 L1531.5,5187.6875 L1529.83333,5185.8125 L1528.10417,5187.6875 L1522.77083,5187.6875 L1522.77083,5182.04167 L1528.1875,5182.04167 L1529.85417,5183.89583 L1531.5625,5182.04167 L1535.875,5182.04167 C1537.14583,5182.04167 1538.14583,5182.47917 1538.14583,5183.89583 Z M1532.08333,5176.79167 L1532.08333,5177.95833 L1527.5625,5177.95833 L1527.5625,5172.3125 L1532.08333,5172.3125 L1532.08333,5173.5 L1528.91667,5173.5 L1528.91667,5174.52083 L1532,5174.52083 L1532,5175.66667 L1528.91667,5175.66667 L1528.91667,5176.79167 L1532.08333,5176.79167 Z M1560,5188.4375 L1560,5193.20833 C1560,5194.72917 1558.77083,5196 1557.25,5196 L1514.75,5196 C1513.22917,5196 1512,5194.72917 1512,5193.20833 L1512,5179.08333 L1514.3125,5179.08333 L1514.83333,5177.8125 L1515.97917,5177.8125 L1516.5,5179.08333 L1521.04167,5179.08333 L1521.04167,5178.125 L1521.4375,5179.08333 L1523.79167,5179.08333 L1524.20833,5178.10417 L1524.20833,5179.08333 L1535.47917,5179.08333 L1535.47917,5177.02083 L1535.6875,5177 C1535.875,5177 1535.89583,5177.14583 1535.89583,5177.29167 L1535.89583,5179.08333 L1541.70833,5179.08333 L1541.70833,5178.60417 C1543.0625,5179.3125 1544.91667,5179.08333 1546.33333,5179.08333 L1546.85417,5177.8125 L1548.02083,5177.8125 L1548.54167,5179.08333 L1553.27083,5179.08333 L1553.27083,5177.875 L1553.97917,5179.08333 L1557.77083,5179.08333 L1557.77083,5171.20833 L1554.02083,5171.20833 L1554.02083,5172.125 L1553.5,5171.20833 L1549.64583,5171.20833 L1549.64583,5172.125 L1549.16667,5171.20833 L1543.97917,5171.20833 C1543.20833,5171.20833 1542.39583,5171.29167 1541.70833,5171.66667 L1541.70833,5171.20833 L1538.125,5171.20833 L1538.125,5171.66667 C1537.70833,5171.29167 1537.14583,5171.20833 1536.60417,5171.20833 L1523.52083,5171.20833 L1522.625,5173.22917 L1521.72917,5171.20833 L1517.60417,5171.20833 L1517.60417,5172.125 L1517.14583,5171.20833 L1513.625,5171.20833 L1512,5174.9375 L1512,5166.79167 C1512,5165.27083 1513.22917,5164 1514.75,5164 L1557.25,5164 C1558.77083,5164 1560,5165.27083 1560,5166.79167 L1560,5180.91667 L1557.5,5180.91667 C1556.91667,5180.91667 1556.29167,5181.02083 1555.8125,5181.375 L1555.8125,5180.91667 L1552.125,5180.91667 C1551.60417,5180.91667 1550.89583,5181 1550.5,5181.375 L1550.5,5180.91667 L1543.91667,5180.91667 L1543.91667,5181.375 C1543.41667,5181.02083 1542.6875,5180.91667 1542.10417,5180.91667 L1537.75,5180.91667 L1537.75,5181.375 C1537.3125,5180.95833 1536.41667,5180.91667 1535.85417,5180.91667 L1530.97917,5180.91667 L1529.85417,5182.125 L1528.8125,5180.91667 L1521.54167,5180.91667 L1521.54167,5188.79167 L1528.6875,5188.79167 L1529.83333,5187.5625 L1530.91667,5188.79167 L1535.3125,5188.79167 L1535.3125,5186.9375 L1535.75,5186.9375 C1536.375,5186.9375 1537.02083,5186.91667 1537.625,5186.66667 L1537.625,5188.79167 L1541.25,5188.79167 L1541.25,5186.72917 L1541.41667,5186.72917 C1541.625,5186.72917 1541.66667,5186.75 1541.66667,5186.97917 L1541.66667,5188.79167 L1552.6875,5188.79167 C1553.29167,5188.79167 1554.04167,5188.66667 1554.52083,5188.29167 L1554.52083,5188.79167 L1558.02083,5188.79167 C1558.6875,5188.79167 1559.39583,5188.72917 1560,5188.4375 Z M1544.20833,5183.5625 C1544.20833,5184.1875 1543.875,5184.8125 1543.25,5185.0625 C1544,5185.33333 1544.14583,5185.83333 1544.14583,5186.5625 L1544.14583,5187.6875 L1542.79167,5187.6875 L1542.79167,5186.75 C1542.79167,5185.79167 1542.47917,5185.625 1541.58333,5185.625 L1540.14583,5185.625 L1540.14583,5187.6875 L1538.79167,5187.6875 L1538.79167,5182.04167 L1542,5182.04167 C1543.0625,5182.04167 1544.20833,5182.22917 1544.20833,5183.5625 Z M1538.4375,5173.83333 C1538.4375,5174.47917 1538.08333,5175.10417 1537.47917,5175.35417 C1538.25,5175.625 1538.375,5176.10417 1538.375,5176.85417 L1538.375,5177.95833 L1537.02083,5177.95833 C1537,5176.75 1537.3125,5175.91667 1535.8125,5175.91667 L1534.35417,5175.91667 L1534.35417,5177.95833 L1533.02083,5177.95833 L1533.02083,5172.3125 L1536.20833,5172.33333 C1537.29167,5172.33333 1538.4375,5172.5 1538.4375,5173.83333 Z M1549.45833,5186.52083 L1549.45833,5187.6875 L1544.95833,5187.6875 L1544.95833,5182.04167 L1549.45833,5182.04167 L1549.45833,5183.20833 L1546.3125,5183.20833 L1546.3125,5184.22917 L1549.39583,5184.22917 L1549.39583,5185.375 L1546.3125,5185.375 L1546.3125,5186.5 L1549.45833,5186.52083 Z M1540.58333,5172.3125 L1540.58333,5177.95833 L1539.20833,5177.95833 L1539.20833,5172.3125 L1540.58333,5172.3125 Z M1555.02083,5185.89583 C1555.02083,5187.22917 1554.10417,5187.6875 1552.89583,5187.6875 L1550.27083,5187.6875 L1550.27083,5186.47917 L1552.89583,5186.47917 C1553.22917,5186.47917 1553.60417,5186.39583 1553.60417,5185.95833 C1553.60417,5184.75 1550.125,5186.41667 1550.125,5183.72917 C1550.125,5182.58333 1551,5182.04167 1552.04167,5182.04167 L1554.75,5182.04167 L1554.75,5183.22917 L1552.27083,5183.22917 C1551.91667,5183.22917 1551.52083,5183.29167 1551.52083,5183.75 C1551.52083,5184.97917 1555.02083,5183.1875 1555.02083,5185.89583 Z M1560,5184.85417 L1560,5186.95833 C1559.60417,5187.54167 1558.83333,5187.6875 1558.16667,5187.6875 L1555.5625,5187.6875 L1555.5625,5186.47917 L1558.16667,5186.47917 C1558.5,5186.47917 1558.85417,5186.375 1558.85417,5185.95833 C1558.85417,5184.77083 1555.375,5186.41667 1555.375,5183.72917 C1555.375,5182.58333 1556.27083,5182.04167 1557.3125,5182.04167 L1560,5182.04167 L1560,5183.22917 L1557.54167,5183.22917 C1557.16667,5183.22917 1556.79167,5183.29167 1556.79167,5183.75 C1556.79167,5184.75 1559.14583,5183.72917 1560,5184.85417 Z M1556.5625,5172.33333 L1556.5625,5177.95833 L1554.64583,5177.95833 L1552.10417,5173.72917 L1552.10417,5177.95833 L1549.35417,5177.95833 L1548.8125,5176.70833 L1546.02083,5176.70833 L1545.5,5177.95833 L1543.9375,5177.95833 C1542.08333,5177.95833 1541.25,5177 1541.25,5175.1875 C1541.25,5173.29167 1542.10417,5172.3125 1544.02083,5172.3125 L1545.33333,5172.3125 L1545.33333,5173.54167 C1543.91667,5173.52083 1542.625,5173.20833 1542.625,5175.14583 C1542.625,5176.10417 1542.85417,5176.77083 1543.9375,5176.77083 L1544.54167,5176.77083 L1546.45833,5172.33333 L1548.47917,5172.33333 L1550.75,5177.66667 L1550.75,5172.33333 L1552.8125,5172.33333 L1555.1875,5176.25 L1555.1875,5172.33333 L1556.5625,5172.33333 Z" id="card-american"></path>
        </g>
    </g>
</svg>