<?xml version="1.0" encoding="UTF-8"?>
<svg width="48px" height="32px" viewBox="0 0 48 32" version="1.1" xmlns="http://www.w3.org/2000/svg" xmlns:xlink="http://www.w3.org/1999/xlink">
    <!-- Generator: Sketch 55.2 (78181) - https://sketchapp.com -->
    <title>card-diners</title>
    <desc>Created with Sketch.</desc>
    <g id="Page-1" stroke="none" stroke-width="1" fill="none" fill-rule="evenodd">
        <g id="MODULOS" transform="translate(-1398.000000, -5164.000000)" fill="#014797" fill-rule="nonzero">
            <path d="M1415.875,5187.1875 L1415.875,5172.75 C1412.97917,5173.875 1410.91667,5176.6875 1410.91667,5179.97917 C1410.91667,5183.27083 1412.97917,5186.08333 1415.875,5187.1875 Z M1426.375,5179.97917 C1426.375,5176.6875 1424.3125,5173.875 1421.41667,5172.75 L1421.41667,5187.20833 C1424.3125,5186.08333 1426.375,5183.27083 1426.375,5179.97917 Z M1430.85417,5179.97917 C1430.85417,5186.70833 1425.39583,5192.1875 1418.64583,5192.1875 C1411.91667,5192.1875 1406.4375,5186.70833 1406.4375,5179.97917 C1406.4375,5173.22917 1411.91667,5167.77083 1418.64583,5167.77083 C1425.39583,5167.77083 1430.85417,5173.22917 1430.85417,5179.97917 Z M1438.83333,5180.125 C1438.83333,5172.16667 1432.1875,5166.66667 1424.89583,5166.66667 L1418.625,5166.66667 C1411.25,5166.66667 1405.16667,5172.16667 1405.16667,5180.125 C1405.16667,5187.39583 1411.25,5193.33333 1418.625,5193.33333 L1424.89583,5193.33333 C1432.1875,5193.33333 1438.83333,5187.39583 1438.83333,5180.125 Z M1446,5166.66667 L1446,5193.33333 C1446,5194.79167 1444.79167,5196 1443.33333,5196 L1400.66667,5196 C1399.20833,5196 1398,5194.79167 1398,5193.33333 L1398,5166.66667 C1398,5165.20833 1399.20833,5164 1400.66667,5164 L1443.33333,5164 C1444.79167,5164 1446,5165.20833 1446,5166.66667 Z" id="card-diners"></path>
        </g>
    </g>
</svg>