<?xml version="1.0" encoding="UTF-8"?>
<svg width="50px" height="32px" viewBox="0 0 50 32" version="1.1" xmlns="http://www.w3.org/2000/svg" xmlns:xlink="http://www.w3.org/1999/xlink">
    <!-- Generator: Sketch 55.2 (78181) - https://sketchapp.com -->
    <title>card-elo</title>
    <desc>Created with Sketch.</desc>
    <g id="Page-1" stroke="none" stroke-width="1" fill="none" fill-rule="evenodd">
        <g id="MODULOS" transform="translate(-1454.000000, -5164.000000)">
            <g id="card-elo" transform="translate(1454.000000, 5164.000000)">
                <rect id="Rectangle" fill="#313131" x="0" y="0" width="49.7777778" height="32" rx="2"></rect>
                <g id="elo" transform="translate(5.925926, 5.925926)" fill="#FFFFFF" fill-rule="nonzero">
                    <path d="M11.0579815,14.4333249 C9.57658888,15.9085217 7.27866456,16.1578272 5.51882661,15.0342768 L3.84662893,17.7145221 C6.83547712,19.6107186 10.7270718,19.1942599 13.2527409,16.7079277 L11.0579815,14.4333249 Z" id="Shape"></path>
                    <path d="M8.03010921,3.50952228 C5.20615105,3.4682298 2.58955887,4.99678856 1.22493552,7.48496329 C-0.139687823,9.97313801 -0.0300683896,13.0156473 1.51003126,15.3978526 L15.3534393,9.44392199 C14.5529494,6.01034504 11.5345402,3.56440218 8.03010921,3.50952228 L8.03010921,3.50952228 Z M3.44201681,11.6764582 C3.42050438,11.4955086 3.4110274,11.3133151 3.41364917,11.1310944 C3.44079682,9.24274518 4.63014238,7.56978794 6.39741401,6.93407106 C8.16468564,6.29835418 10.1384649,6.83348305 11.349123,8.27657298 L3.44201681,11.6764582 Z" id="Shape"></path>
                    <path d="M19.6936881,0.0435323671 L19.6936881,14.8945554 L22.2542408,15.9627474 L21.0433905,18.8908854 L18.5052333,17.8392196 C17.9973301,17.6173845 17.5642735,17.2520704 17.2585502,16.7875538 C16.919045,16.235319 16.7487182,15.5946856 16.7688352,14.9456364 L16.7688352,0.0435323671 L19.6936881,0.0435323671 Z" id="Shape"></path>
                    <path d="M28.9281012,6.90640272 C30.1496903,6.49625789 31.4873705,6.63240961 32.6025963,7.28040005 C33.7178221,7.92839048 34.503717,9.02612017 34.7613837,10.2957713 L37.8459912,9.66326942 C37.4081137,7.50540243 36.0725558,5.63966941 34.1772651,4.53817263 C32.2819743,3.43667584 30.008547,3.20495463 27.9322478,3.90164337 L28.9281012,6.90640272 Z" id="Shape"></path>
                    <path d="M25.2895782,16.9618299 L27.3798253,14.5895724 C26.4153338,13.7303978 25.8631364,12.4963934 25.8631364,11.2002038 C25.8631364,9.90401423 26.4153338,8.6700099 27.3798253,7.81083528 L25.2895782,5.43857778 C23.6496613,6.89888453 22.7107088,8.99666178 22.7107088,11.2002038 C22.7107088,13.4037459 23.6496613,15.5015231 25.2895782,16.9618299 L25.2895782,16.9618299 Z" id="Shape"></path>
                    <path d="M34.7613837,12.1106459 C34.5022611,13.3795774 33.7156176,14.4761476 32.6003036,15.1231619 C31.4849897,15.7701762 30.1477469,15.9057117 28.9266082,15.4955073 L27.9277687,18.5002667 C30.0033554,19.1980958 32.2765594,18.968093 34.1725307,17.8684215 C36.068502,16.76875 37.4057067,14.9047002 37.8459912,12.7476549 L34.7613837,12.1106459 Z" id="Shape"></path>
                </g>
            </g>
        </g>
    </g>
</svg>