<?xml version="1.0" encoding="UTF-8"?>
<svg width="50px" height="32px" viewBox="0 0 50 32" version="1.1" xmlns="http://www.w3.org/2000/svg" xmlns:xlink="http://www.w3.org/1999/xlink">
    <!-- Generator: Sketch 55.2 (78181) - https://sketchapp.com -->
    <title>card-hipercard</title>
    <desc>Created with Sketch.</desc>
    <g id="Page-1" stroke="none" stroke-width="1" fill="none" fill-rule="evenodd">
        <g id="MODULOS" transform="translate(-1568.000000, -5164.000000)">
            <g id="card-hipercard" transform="translate(1568.000000, 5164.000000)">
                <rect id="Rectangle" fill="#AD292E" x="0" y="0" width="49.7777778" height="32" rx="2"></rect>
                <path d="M5.92592593,19.672164 C6.19192014,18.6971831 6.44579924,17.6021375 6.68460174,16.3875728 C6.92528881,15.1727353 7.13878417,13.8937722 7.32562626,12.5485006 C7.49039191,12.569512 7.60831242,12.5815184 7.67884935,12.5886132 C7.74938628,12.595435 7.80673118,12.5989824 7.85384554,12.5989824 C7.9160365,12.5989824 7.99007335,12.595435 8.07757145,12.5886132 C8.16506955,12.5798812 8.27787479,12.5678747 8.41571794,12.5485006 C8.26091362,13.0492254 8.10449394,13.6921179 7.94618969,14.479361 L7.92276712,14.5906938 L7.72084844,15.5951451 C7.86380687,15.5986925 8.07084083,15.6055143 8.33656582,15.6142463 C8.92347613,15.6281629 9.31223691,15.6349848 9.499079,15.6349848 C9.88407063,15.6349848 10.5167492,15.6229783 11.396307,15.6003297 C11.4754591,15.6003297 11.5344194,15.5986925 11.5745339,15.5951451 L11.8101057,14.4479804 C11.8959884,14.0100168 11.9581794,13.6520053 11.9950632,13.3739462 C12.0338316,13.0961599 12.0623694,12.8197379 12.0825613,12.5485006 C12.2171737,12.569512 12.3264791,12.5815184 12.4088619,12.5886132 C12.4931293,12.595435 12.5687815,12.5989824 12.6344724,12.5989824 C12.6799714,12.5989824 12.7421623,12.595435 12.8194299,12.5886132 C12.8966974,12.5815184 13.0162333,12.569512 13.1809989,12.5485006 C12.8229298,13.9196953 12.5232825,15.2196697 12.2812493,16.4484239 C12.0405622,17.677178 11.8722966,18.7528495 11.7764526,19.672164 C11.5982257,19.6476052 11.4803052,19.6339615 11.4199988,19.628504 C11.3575386,19.6233194 11.3071935,19.6216822 11.2635791,19.6216822 C11.1978882,19.6216822 11.122236,19.6252295 11.0347379,19.6320514 C10.9472398,19.6391461 10.8295885,19.6511526 10.6815148,19.672164 C10.8077813,19.1940877 10.9135867,18.7700406 11.0027002,18.40166 C11.0918136,18.0332793 11.1591198,17.7377562 11.2046188,17.5137262 L11.4754591,16.1389841 C11.176081,16.1389841 10.8177426,16.1373469 10.3988287,16.1337995 C9.9799147,16.1302521 9.70907443,16.1286149 9.58819245,16.1286149 C9.25677658,16.1286149 8.93020676,16.1286149 8.61252136,16.1302521 C8.29295138,16.1321622 7.96315086,16.1354367 7.62177367,16.1389841 L7.38458652,17.2946079 C7.31889564,17.6406128 7.25670468,18.0106307 7.19451373,18.40166 C7.13393812,18.7943265 7.07336251,19.2167363 7.01117156,19.672164 C6.88167438,19.6547 6.77559976,19.6424206 6.69294771,19.6339615 C6.60894954,19.6252295 6.53679726,19.6216822 6.477837,19.6216822 C6.41887675,19.6216822 6.34833982,19.6252295 6.26595699,19.6320514 C6.18330494,19.6391461 6.07076893,19.6511526 5.92592593,19.672164 Z M14.1179016,12.8492084 C14.1179016,12.6980359 14.165016,12.5746966 14.2589755,12.4808277 C14.3515889,12.3869589 14.4727401,12.3400244 14.6208138,12.3400244 C14.7756181,12.3400244 14.8948848,12.3853216 14.9807675,12.473733 C15.0666502,12.5624172 15.1086493,12.6876666 15.1086493,12.8492084 C15.1086493,12.993559 15.061535,13.1152611 14.9656909,13.2140417 C14.8698468,13.313368 14.7519263,13.3635769 14.6105832,13.3635769 C14.4695094,13.3635769 14.3515889,13.3150053 14.2589755,13.217589 C14.165016,13.1204457 14.1179016,12.9971064 14.1179016,12.8492084 Z M12.9553885,19.672164 C13.231344,18.5929451 13.4448394,17.6196015 13.5980283,16.7543163 C13.7512173,15.8887581 13.8336001,15.1970211 13.8470614,14.677468 C13.9461362,14.6913846 14.0371342,14.7001165 14.1227477,14.7069384 C14.2086304,14.7140331 14.2910133,14.7175805 14.3701654,14.7175805 C14.4509329,14.7175805 14.538431,14.7140331 14.6275444,14.7069384 C14.7182732,14.7001165 14.8108866,14.6913846 14.9067306,14.677468 C14.6410057,15.6644552 14.4323563,16.5840425 14.2826673,17.4337739 C14.1329782,18.2851425 14.0438648,19.0309087 14.015327,19.672164 C13.8637533,19.6511526 13.7493327,19.6391461 13.6720652,19.6320514 C13.5947976,19.6252295 13.5291068,19.6216822 13.4717619,19.6216822 C13.4265321,19.6216822 13.3659565,19.6252295 13.290035,19.6320514 C13.2146521,19.6391461 13.1034622,19.6511526 12.9553885,19.672164 Z M17.4078301,19.2028197 C17.9123576,19.2028197 18.3345023,18.9438617 18.672918,18.4259458 C19.0107953,17.90994 19.1806762,17.2667747 19.1806762,16.5005429 C19.1806762,16.0554845 19.0832168,15.7081152 18.8880287,15.4543418 C18.6931099,15.2022057 18.4238849,15.0755919 18.0822385,15.0755919 C17.5591345,15.0755919 17.1251439,15.3345499 16.7770361,15.8541031 C16.4289283,16.3736562 16.2539321,17.0165487 16.2539321,17.7830534 C16.2539321,18.2504875 16.3513915,18.6049515 16.5449643,18.8448083 C16.7382677,19.0830278 17.0260692,19.2028197 17.4078301,19.2028197 Z M14.3378584,22.5185185 C14.6439671,21.4289304 14.9301532,20.2179131 15.1974936,18.8830107 C15.4648339,17.5483812 15.7039056,16.1477161 15.9141703,14.677468 C16.0032837,14.6878372 16.0824359,14.6949319 16.1529728,14.7001165 C16.2235097,14.7053012 16.2859699,14.7088485 16.3379303,14.7088485 C16.3933906,14.7088485 16.4606969,14.7053012 16.539849,14.7001165 C16.6190011,14.6949319 16.7081146,14.6878372 16.805574,14.677468 L16.6190011,15.4057702 C16.8677649,15.1170689 17.1337591,14.9034081 17.4145607,14.7626048 C17.6953623,14.6218015 18.0017403,14.5505813 18.3345023,14.5505813 C18.8831826,14.5505813 19.3171732,14.7366817 19.6399739,15.110247 C19.9614284,15.4838123 20.1226942,15.9894489 20.1226942,16.6274296 C20.1226942,17.5328274 19.8688151,18.2870527 19.3591723,18.8881953 C18.8492603,19.4877007 18.208505,19.7884085 17.436368,19.7884085 C17.1184133,19.7884085 16.8292658,19.6877178 16.5667715,19.4877007 C16.3058925,19.2879566 16.1244349,19.0273614 16.0234756,18.704005 L15.801365,19.8702709 C15.7879038,19.9343964 15.7677119,20.03536 15.7424048,20.1707058 C15.5574473,21.1145789 15.4177195,21.8966374 15.32376,22.5185185 C15.2077241,22.4977801 15.1151107,22.4838634 15.0443046,22.4734942 C14.9737677,22.463125 14.9183073,22.4579404 14.8744237,22.4579404 C14.8055021,22.4579404 14.7266192,22.463125 14.6356212,22.4734942 C14.5465077,22.4838634 14.4455484,22.4977801 14.3378584,22.5185185 Z M21.3907435,16.6882806 C21.4868568,16.6915551 21.6179693,16.6951025 21.7843503,16.6986498 C22.1798417,16.7054717 22.4404515,16.7090191 22.5683333,16.7090191 C22.716407,16.7090191 23.0042084,16.7054717 23.4311991,16.6986498 C23.5994647,16.6951025 23.7289619,16.6915551 23.8199599,16.6882806 C23.8299212,16.5769478 23.8382672,16.4814417 23.8433825,16.4031267 C23.8484978,16.3250846 23.8501131,16.2571388 23.8501131,16.1998351 C23.8501131,15.8088059 23.7661149,15.5029135 23.5994647,15.2805207 C23.4311991,15.058128 23.1991273,14.9467951 22.9048644,14.9467951 C22.5532567,14.9467951 22.2404173,15.101515 21.9695771,15.412592 C21.6987368,15.723669 21.5051641,16.1493533 21.3907435,16.6882806 Z M21.296784,17.1278815 C21.2849381,17.2392143 21.2747076,17.3502743 21.2679769,17.459697 C21.2612463,17.5710298 21.2580156,17.6788153 21.2580156,17.7830534 C21.2580156,18.2731361 21.3740516,18.6486115 21.608008,18.9108439 C21.8416952,19.1733493 22.1747265,19.3054205 22.608717,19.3054205 C22.8811726,19.3054205 23.1420516,19.2410221 23.3943153,19.1141355 C23.6449637,18.9872488 23.9090734,18.7839572 24.1850289,18.5058981 L24.3077955,18.6084989 C24.2587965,18.7091896 24.2135667,18.8169751 24.173183,18.9318553 C24.1311839,19.0445525 24.0940309,19.16298 24.0619931,19.2844092 C23.7795762,19.4685995 23.5071206,19.6025809 23.2462416,19.689355 C22.9856319,19.776402 22.716407,19.8197891 22.4404515,19.8197891 C21.7843503,19.8197891 21.2612463,19.6181348 20.8711394,19.2167363 C20.4826479,18.8134277 20.2874598,18.2731361 20.2874598,17.5953157 C20.2874598,16.7300304 20.5381082,16.0033655 21.0410203,15.4177766 C21.5439325,14.8321878 22.1782264,14.540212 22.9433636,14.540212 C23.505236,14.540212 23.9443418,14.720855 24.2639118,15.0805037 C24.5818664,15.4404252 24.7415168,15.9392399 24.7415168,16.5769478 C24.7415168,16.6116029 24.7382861,16.6760013 24.7315555,16.7734175 C24.7248249,16.8705608 24.7164789,16.9887155 24.7062483,17.1278815 C24.6542879,17.1278815 24.5767512,17.1278815 24.4757918,17.1278815 C23.7273465,17.1139649 23.1958966,17.1068702 22.8846726,17.1068702 C22.8189817,17.1068702 22.6054863,17.1087803 22.243648,17.1139649 C21.882079,17.1191495 21.5673551,17.1243342 21.296784,17.1278815 Z M24.7331708,19.672164 C24.9770886,18.7110997 25.1720074,17.8005173 25.3216965,16.9385066 C25.4716548,16.0764958 25.5674988,15.3222705 25.6111133,14.677468 C25.7018421,14.6913846 25.7861095,14.7001165 25.8582618,14.7069384 C25.9322986,14.7140331 25.9979895,14.7175805 26.0534498,14.7175805 C26.1258713,14.7175805 26.2015235,14.7140331 26.2787911,14.7069384 C26.3544433,14.7001165 26.4370953,14.6913846 26.5229781,14.677468 C26.4723638,14.8302777 26.4303647,14.988545 26.3967116,15.1536341 C26.3614431,15.3170859 26.3326361,15.490907 26.3108288,15.6731872 C26.5329394,15.3239078 26.7717419,15.0545806 27.0275056,14.8616583 C27.2813847,14.6706461 27.527187,14.5748671 27.7643742,14.5748671 C27.8063732,14.5748671 27.8499877,14.5784145 27.8954867,14.5852363 C27.9391011,14.5923311 27.9862155,14.6027003 28.0349452,14.6166169 C27.9929461,14.7609676 27.959293,14.9069555 27.9358704,15.0529434 C27.9140632,15.1989312 27.8987174,15.343009 27.8919868,15.4854495 C27.7778354,15.4611637 27.6833375,15.4439726 27.6095698,15.4316932 C27.535533,15.4194139 27.4682267,15.4142293 27.4092665,15.4142293 C26.9483534,15.4142293 26.5951303,15.7097524 26.3479819,16.302436 C26.0989488,16.8932094 25.8886842,18.0158154 25.713688,19.672164 C25.5992674,19.6563372 25.501808,19.6443307 25.4210405,19.6355988 C25.340273,19.6268668 25.2678515,19.6216822 25.2056606,19.6216822 C25.1668922,19.6216822 25.1165471,19.6252295 25.0559715,19.6320514 C24.9953959,19.6391461 24.8877059,19.6511526 24.7331708,19.672164 Z M31.3924491,19.3921947 C31.1536466,19.5313607 30.9062289,19.6355988 30.6539652,19.7051818 C30.4017014,19.7747648 30.1392071,19.8094199 29.8699822,19.8094199 C29.225727,19.8094199 28.7061229,19.6061283 28.3106315,19.2011825 C27.9154093,18.7962366 27.7169906,18.2608567 27.7169906,17.5953157 C27.7169906,16.7403996 27.9792156,16.0208294 28.5058196,15.4368779 C29.0305389,14.8529263 29.6917553,14.5609505 30.4856996,14.5609505 C30.8238461,14.5609505 31.1315702,14.5958785 31.4091411,14.6654615 C31.6867119,14.7347716 31.9408603,14.8390097 32.1713168,14.9781757 C32.102126,15.1170689 32.043435,15.2595094 31.994436,15.4057702 C31.944091,15.5517581 31.9053226,15.6974731 31.8751694,15.843461 L31.723865,15.8541031 C31.6075598,15.5724965 31.4495248,15.3536511 31.2476061,15.1989312 C31.0459566,15.0442114 30.8155001,14.9678065 30.5546212,14.9678065 C30.0264019,14.9678065 29.5789501,15.2284017 29.2141503,15.7515022 C28.8490813,16.2746028 28.6673545,16.9106734 28.6673545,17.6613513 C28.6673545,18.1896365 28.7850058,18.5964924 29.0205776,18.8797362 C29.2545341,19.16298 29.590796,19.3054205 30.0282865,19.3054205 C30.3241646,19.3054205 30.6001202,19.2429323 30.8574992,19.1193201 C31.1164936,18.9959808 31.3267582,18.8221597 31.4915239,18.5981297 L31.6347515,18.7143742 C31.5857526,18.8205224 31.5402536,18.9299451 31.4982545,19.0429152 C31.4578708,19.1577954 31.4226023,19.2724027 31.3924491,19.3921947 Z M34.4990354,18.9856116 C34.2685789,19.256576 34.0348917,19.456593 33.7942046,19.5834797 C33.5537867,19.7103664 33.2945231,19.7747648 33.0153369,19.7747648 C32.62523,19.7747648 32.3156213,19.6650692 32.0918954,19.4462238 C31.8665542,19.2271055 31.7537489,18.9318553 31.7537489,18.5580171 C31.7537489,18.081851 31.9050533,17.7134703 32.2095467,17.4512379 C32.5140401,17.1870953 33.0508746,16.9802564 33.8195117,16.8271738 L34.6656856,16.6585373 C34.7984135,16.6307041 34.8942576,16.5474773 34.9564485,16.4083113 C35.0186395,16.2694182 35.0506773,16.0642165 35.0506773,15.793252 C35.0506773,15.5271993 34.9750251,15.3206333 34.8237207,15.171098 C34.6724163,15.0215628 34.4621516,14.9467951 34.1929267,14.9467951 C33.891664,14.9467951 33.6227083,15.0180154 33.3906364,15.1588187 C33.15668,15.299622 32.9749532,15.5012763 32.8438406,15.7618715 L32.6704598,15.7304909 C32.6973823,15.6298002 32.7159588,15.5307467 32.72942,15.4352406 C32.7428813,15.3413718 32.7496119,15.2475029 32.7496119,15.1552713 C32.7496119,15.1380802 32.7479966,15.110247 32.7444966,15.0720446 C32.7412659,15.031932 32.7396506,15.0008243 32.7396506,14.9781757 C32.9867991,14.8250931 33.2358321,14.712123 33.4880958,14.6392655 C33.7419749,14.5661351 34.0111999,14.5298428 34.2971167,14.5298428 C34.7932982,14.5298428 35.1734438,14.6392655 35.4410534,14.860021 C35.7067784,15.0805037 35.8397755,15.3951281 35.8397755,15.8036213 C35.8397755,15.921776 35.8295449,16.0694011 35.8077377,16.2432222 C35.7859305,16.4186805 35.7555081,16.6064182 35.7170089,16.8064353 L35.3753625,18.5738438 C35.3602859,18.651886 35.3468247,18.7250163 35.3384787,18.7943265 C35.3317481,18.8639095 35.3266328,18.9283079 35.3266328,18.9856116 C35.3266328,19.084665 35.3535553,19.1594326 35.4057849,19.2131889 C35.4577453,19.2672181 35.5320514,19.2950513 35.6278955,19.2950513 C35.6663946,19.2950513 35.7100091,19.2898667 35.7555081,19.2792246 C35.8026224,19.2704926 35.8683133,19.2513914 35.9523115,19.2254683 L36.0818087,19.4931582 C35.9237737,19.585117 35.7724693,19.6530627 35.6295108,19.698087 C35.4865524,19.741747 35.3452093,19.7641227 35.2038662,19.7641227 C34.986871,19.7641227 34.81699,19.6964498 34.6958388,19.5627413 C34.5746876,19.4287598 34.509266,19.2374748 34.4990354,18.9856116 Z M34.8186054,17.0252807 L33.991008,17.2233876 C33.5117876,17.3363577 33.1617953,17.4910776 32.9413,17.6875473 C32.7210741,17.8837441 32.6117687,18.1394275 32.6117687,18.4521418 C32.6117687,18.6816293 32.6788058,18.8690941 32.8118029,19.0115346 C32.9448,19.154248 33.1197962,19.2254683 33.3367914,19.2254683 C33.621093,19.2254683 33.8935486,19.1193201 34.149043,18.9092067 C34.4048067,18.6988204 34.5579957,18.4556892 34.6067254,18.1809045 L34.8186054,17.0252807 Z M36.2196518,19.672164 C36.4635696,18.7110997 36.6587577,17.8005173 36.8084467,16.9385066 C36.9581358,16.0764958 37.0539799,15.3222705 37.0975943,14.677468 C37.1885923,14.6913846 37.2725905,14.7001165 37.345012,14.7069384 C37.4190488,14.7140331 37.4847397,14.7175805 37.5402,14.7175805 C37.6123523,14.7175805 37.6882738,14.7140331 37.7655413,14.7069384 C37.8411935,14.7001165 37.9235763,14.6913846 38.0094591,14.677468 C37.959114,14.8302777 37.9168457,14.988545 37.8831926,15.1536341 C37.8479241,15.3170859 37.8193863,15.490907 37.7973098,15.6731872 C38.0194204,15.3239078 38.2584921,15.0545806 38.5139866,14.8616583 C38.7681349,14.6706461 39.013668,14.5748671 39.2508552,14.5748671 C39.2928542,14.5748671 39.3367379,14.5784145 39.3819677,14.5852363 C39.4255821,14.5923311 39.4729657,14.6027003 39.5216954,14.6166169 C39.4796963,14.7609676 39.4460432,14.9069555 39.4223514,15.0529434 C39.4005442,15.1989312 39.3854676,15.343009 39.378737,15.4854495 C39.2643164,15.4611637 39.1700877,15.4439726 39.0960508,15.4316932 C39.022014,15.4194139 38.9547078,15.4142293 38.8960167,15.4142293 C38.4351037,15.4142293 38.0816114,15.7097524 37.8344629,16.302436 C37.5854298,16.8932094 37.3751652,18.0158154 37.200169,19.672164 C37.0857484,19.6563372 36.988289,19.6443307 36.9077907,19.6355988 C36.826754,19.6268668 36.7546017,19.6216822 36.6924108,19.6216822 C36.6536424,19.6216822 36.6032973,19.6252295 36.5424525,19.6320514 C36.4821461,19.6391461 36.3744562,19.6511526 36.2196518,19.672164 Z M42.745933,18.9438617 C42.4702467,19.2374748 42.1926758,19.4530457 41.9134896,19.5870271 C41.6343033,19.7207356 41.3230793,19.7884085 40.9814329,19.7884085 C40.4602135,19.7884085 40.0394149,19.5973963 39.7233449,19.2150991 C39.4053903,18.834439 39.2473552,18.3252551 39.2473552,17.6908218 C39.2473552,16.7993406 39.4980036,16.05221 40.0009158,15.4507945 C40.5038279,14.851289 41.1295066,14.5505813 41.8782211,14.5505813 C42.2263289,14.5505813 42.5308223,14.6460874 42.7898167,14.8390097 C43.0504264,15.0302948 43.2372685,15.2960746 43.3516891,15.6349848 L43.5837609,14.479361 C43.6863356,13.9633552 43.7738337,13.4923737 43.8494859,13.0664165 C43.9254074,12.6407322 43.990829,12.2357864 44.0462893,11.8518519 C44.1690559,11.8761377 44.2649,11.8916915 44.3357061,11.9004235 C44.4062431,11.9091555 44.4619726,11.91243 44.5055871,11.91243 C44.5712779,11.91243 44.6485455,11.9072454 44.7395435,11.8968762 C44.828657,11.8865069 44.9296163,11.8725903 45.037037,11.8518519 C44.6924291,13.1185356 44.3879358,14.4081408 44.1238261,15.723669 C43.8581011,17.0391973 43.6376059,18.3547256 43.4609944,19.672164 C43.3751116,19.6615218 43.2962287,19.6530627 43.2221919,19.6476052 C43.148155,19.6424206 43.0840795,19.6407834 43.0321191,19.6407834 C42.9731588,19.6407834 42.9042373,19.6424206 42.8250851,19.6476052 C42.745933,19.6530627 42.6568196,19.6615218 42.5593601,19.672164 L42.745933,18.9438617 Z M41.9721806,15.1468122 C41.4609225,15.1468122 41.0336625,15.4057702 40.6939007,15.9253233 C40.3541389,16.4448765 40.1842579,17.0929536 40.1842579,17.8698275 C40.1842579,18.3200705 40.2784867,18.6658026 40.4650595,18.9056593 C40.6519016,19.1438788 40.9208573,19.2636707 41.272465,19.2636707 C41.8090303,19.2636707 42.2481361,19.0047128 42.5930133,18.4867969 C42.9378904,17.9707911 43.111002,17.3156192 43.111002,16.526466 C43.111002,16.0781331 43.0135426,15.7356755 42.8183545,15.5012763 C42.6215511,15.2649669 42.3407495,15.1468122 41.9721806,15.1468122 L41.9721806,15.1468122 Z" id="Fill-2" fill="#FFFFFE"></path>
            </g>
        </g>
    </g>
</svg>