<?xml version="1.0" encoding="UTF-8"?>
<svg width="50px" height="32px" viewBox="0 0 50 32" version="1.1" xmlns="http://www.w3.org/2000/svg" xmlns:xlink="http://www.w3.org/1999/xlink">
    <!-- Generator: Sketch 55.2 (78181) - https://sketchapp.com -->
    <title>card-master</title>
    <desc>Created with Sketch.</desc>
    <g id="Page-1" stroke="none" stroke-width="1" fill="none" fill-rule="evenodd">
        <g id="MODULOS" transform="translate(-1340.000000, -5164.000000)">
            <g id="card-master" transform="translate(1340.000000, 5164.000000)">
                <rect id="Rectangle" fill="#FFFFFF" x="0" y="0" width="49.7777778" height="32" rx="2"></rect>
                <g id="mastercard-seeklogo.com" transform="translate(9.481481, 4.740741)" fill-rule="nonzero">
                    <path d="M5.60194681,23.585937 L5.60194681,22.0170275 C5.60194681,21.4156122 5.23200694,21.0233848 4.5978243,21.0233848 C4.28073299,21.0233848 3.93721739,21.1279787 3.6993989,21.4679091 C3.51442897,21.1802758 3.2501862,21.0233848 2.85382206,21.0233848 C2.5895793,21.0233848 2.32533653,21.1018303 2.11394233,21.3894638 L2.11394233,21.0756818 L1.55903252,21.0756818 L1.55903252,23.585937 L2.11394233,23.585937 L2.11394233,22.200067 C2.11394233,21.7555426 2.35176081,21.5463547 2.72170068,21.5463547 C3.09164055,21.5463547 3.27661048,21.781691 3.27661048,22.200067 L3.27661048,23.585937 L3.83152029,23.585937 L3.83152029,22.200067 C3.83152029,21.7555426 4.09576305,21.5463547 4.43927864,21.5463547 C4.80921851,21.5463547 4.99418845,21.781691 4.99418845,22.200067 L4.99418845,23.585937 L5.60194681,23.585937 L5.60194681,23.585937 Z M13.8198968,21.0756818 L12.9214713,21.0756818 L12.9214713,20.3173756 L12.3665616,20.3173756 L12.3665616,21.0756818 L11.8645003,21.0756818 L11.8645003,21.5725031 L12.3665616,21.5725031 L12.3665616,22.7230368 C12.3665616,23.2983037 12.60438,23.6382341 13.2385628,23.6382341 C13.4763811,23.6382341 13.740624,23.5597885 13.9255939,23.4551946 L13.7670483,22.9845218 C13.6085026,23.0891156 13.4235327,23.1152641 13.2914112,23.1152641 C13.0271686,23.1152641 12.9214713,22.9583733 12.9214713,22.6968883 L12.9214713,21.5725031 L13.8198968,21.5725031 L13.8198968,21.0756818 L13.8198968,21.0756818 Z M18.523418,21.0233848 C18.2063267,21.0233848 17.9949325,21.1802758 17.8628111,21.3894638 L17.8628111,21.0756818 L17.3079012,21.0756818 L17.3079012,23.585937 L17.8628111,23.585937 L17.8628111,22.1739185 C17.8628111,21.7555426 18.047781,21.5202062 18.3912966,21.5202062 C18.4969937,21.5202062 18.6291151,21.5463547 18.7348122,21.5725031 L18.8933579,21.0495333 C18.7876608,21.0233848 18.6291151,21.0233848 18.523418,21.0233848 L18.523418,21.0233848 L18.523418,21.0233848 Z M11.4152876,21.2848697 C11.1510448,21.1018303 10.781105,21.0233848 10.3847408,21.0233848 C9.75055822,21.0233848 9.32776975,21.3371668 9.32776975,21.8339881 C9.32776975,22.252364 9.64486112,22.4877004 10.1997709,22.5661459 L10.4640137,22.5922943 C10.7546807,22.6445913 10.9132263,22.7230368 10.9132263,22.8537793 C10.9132263,23.0368187 10.7018321,23.1675612 10.3318923,23.1675612 C9.96195242,23.1675612 9.67128536,23.0368187 9.4863154,22.9060762 L9.22207265,23.3244522 C9.51273971,23.53364 9.90910387,23.6382341 10.305468,23.6382341 C11.0453477,23.6382341 11.4681362,23.2983037 11.4681362,22.8276308 C11.4681362,22.3831064 11.1246205,22.1477701 10.596135,22.0693245 L10.3318923,22.043176 C10.0940738,22.0170275 9.90910387,21.9647306 9.90910387,21.8078397 C9.90910387,21.6248001 10.0940738,21.5202062 10.3847408,21.5202062 C10.7018321,21.5202062 11.0189234,21.6509487 11.1774691,21.7293941 L11.4152876,21.2848697 L11.4152876,21.2848697 Z M26.1600339,21.0233848 C25.8429425,21.0233848 25.6315483,21.1802758 25.4994269,21.3894638 L25.4994269,21.0756818 L24.9445171,21.0756818 L24.9445171,23.585937 L25.4994269,23.585937 L25.4994269,22.1739185 C25.4994269,21.7555426 25.6843968,21.5202062 26.0279124,21.5202062 C26.1336095,21.5202062 26.265731,21.5463547 26.3714281,21.5725031 L26.5299738,21.0495333 C26.4242767,21.0233848 26.265731,21.0233848 26.1600339,21.0233848 L26.1600339,21.0233848 L26.1600339,21.0233848 Z M19.0783278,22.3308094 C19.0783278,23.0891156 19.6068133,23.6382341 20.4259659,23.6382341 C20.7959057,23.6382341 21.0601485,23.5597885 21.3243912,23.3506006 L21.0601485,22.9060762 C20.8487543,23.0629672 20.6373601,23.1414127 20.3995416,23.1414127 C19.9503289,23.1414127 19.6332376,22.8276308 19.6332376,22.3308094 C19.6332376,21.8601366 19.9503289,21.5463547 20.3995416,21.5202062 C20.6373601,21.5202062 20.8487543,21.5986516 21.0601485,21.7555426 L21.3243912,21.3110183 C21.0601485,21.1018303 20.7959057,21.0233848 20.4259659,21.0233848 C19.6068133,21.0233848 19.0783278,21.5725031 19.0783278,22.3308094 L19.0783278,22.3308094 L19.0783278,22.3308094 Z M24.2046374,22.3308094 L24.2046374,21.0756818 L23.6497276,21.0756818 L23.6497276,21.3894638 C23.4647577,21.1541273 23.2005149,21.0233848 22.8569993,21.0233848 C22.1435439,21.0233848 21.588634,21.5725031 21.588634,22.3308094 C21.588634,23.0891156 22.1435439,23.6382341 22.8569993,23.6382341 C23.2269392,23.6382341 23.491182,23.5074915 23.6497276,23.2721551 L23.6497276,23.585937 L24.2046374,23.585937 L24.2046374,22.3308094 Z M22.1699682,22.3308094 C22.1699682,21.886285 22.4606352,21.5202062 22.9362722,21.5202062 C23.3854849,21.5202062 23.7025762,21.8601366 23.7025762,22.3308094 C23.7025762,22.7753337 23.3854849,23.1414127 22.9362722,23.1414127 C22.4606352,23.1152641 22.1699682,22.7753337 22.1699682,22.3308094 L22.1699682,22.3308094 Z M15.5374747,21.0233848 C14.797595,21.0233848 14.2691095,21.5463547 14.2691095,22.3308094 C14.2691095,23.1152641 14.797595,23.6382341 15.563899,23.6382341 C15.9338389,23.6382341 16.3037787,23.53364 16.5944457,23.2983037 L16.330203,22.9060762 C16.1188088,23.0629672 15.854566,23.1675612 15.5903233,23.1675612 C15.2468077,23.1675612 14.9032921,23.0106703 14.8240193,22.5661459 L16.7001428,22.5661459 L16.7001428,22.3569579 C16.7265671,21.5463547 16.2509301,21.0233848 15.5374747,21.0233848 L15.5374747,21.0233848 L15.5374747,21.0233848 Z M15.5374747,21.4940577 C15.8809903,21.4940577 16.1188088,21.7032457 16.1716573,22.095473 L14.8504436,22.095473 C14.9032921,21.7555426 15.1411106,21.4940577 15.5374747,21.4940577 L15.5374747,21.4940577 Z M29.3045227,22.3308094 L29.3045227,20.0820392 L28.7496129,20.0820392 L28.7496129,21.3894638 C28.564643,21.1541273 28.3004002,21.0233848 27.9568847,21.0233848 C27.2434292,21.0233848 26.6885194,21.5725031 26.6885194,22.3308094 C26.6885194,23.0891156 27.2434292,23.6382341 27.9568847,23.6382341 C28.3268245,23.6382341 28.5910673,23.5074915 28.7496129,23.2721551 L28.7496129,23.585937 L29.3045227,23.585937 L29.3045227,22.3308094 Z M27.2698535,22.3308094 C27.2698535,21.886285 27.5605205,21.5202062 28.0361575,21.5202062 C28.4853702,21.5202062 28.8024615,21.8601366 28.8024615,22.3308094 C28.8024615,22.7753337 28.4853702,23.1414127 28.0361575,23.1414127 C27.5605205,23.1152641 27.2698535,22.7753337 27.2698535,22.3308094 L27.2698535,22.3308094 Z M8.72001144,22.3308094 L8.72001144,21.0756818 L8.16510163,21.0756818 L8.16510163,21.3894638 C7.98013167,21.1541273 7.71588892,21.0233848 7.37237331,21.0233848 C6.65891784,21.0233848 6.10400802,21.5725031 6.10400802,22.3308094 C6.10400802,23.0891156 6.65891784,23.6382341 7.37237331,23.6382341 C7.74231316,23.6382341 8.00655598,23.5074915 8.16510163,23.2721551 L8.16510163,23.585937 L8.72001144,23.585937 L8.72001144,22.3308094 Z M6.65891784,22.3308094 C6.65891784,21.886285 6.9495849,21.5202062 7.42522186,21.5202062 C7.87443457,21.5202062 8.19152587,21.8601366 8.19152587,22.3308094 C8.19152587,22.7753337 7.87443457,23.1414127 7.42522186,23.1414127 C6.9495849,23.1152641 6.65891784,22.7753337 6.65891784,22.3308094 Z" id="Shape" fill="#000000"></path>
                    <polygon id="Rectangle-path" fill="#FF5F00" points="11.2303203 2.01343414 19.5539673 2.01343414 19.5539673 16.8134799 11.2303203 16.8134799"></polygon>
                    <path d="M11.7588032,9.41345465 C11.7588032,6.40637808 13.1857141,3.73923197 15.3789291,2.01343153 C13.7670481,0.758303934 11.7323789,-2.31959769e-06 9.51273971,-2.31959769e-06 C4.2543087,-2.31959769e-06 2.07737279e-07,4.20990481 2.07737279e-07,9.41345465 C2.07737279e-07,14.6170044 4.2543087,18.8269116 9.51273971,18.8269116 C11.7323789,18.8269116 13.7670481,18.0686053 15.3789291,16.8134778 C13.1857141,15.1138257 11.7588032,12.4205312 11.7588032,9.41345465 Z" id="Shape" fill="#EB001B"></path>
                    <path d="M30.7842823,9.41345465 C30.7842823,14.6170044 26.5299738,18.8269116 21.2715427,18.8269116 C19.0519035,18.8269116 17.0172341,18.0686053 15.4053534,16.8134778 C17.6249925,15.0876773 19.0254792,12.4205312 19.0254792,9.41345465 C19.0254792,6.40637808 17.5985682,3.73923197 15.4053534,2.01343153 C17.0172341,0.758303934 19.0519035,-2.31959769e-06 21.2715427,-2.31959769e-06 C26.5299738,-2.31959769e-06 30.7842823,4.23605331 30.7842823,9.41345465 Z" id="Shape" fill="#F79E1B"></path>
                </g>
            </g>
        </g>
    </g>
</svg>