<svg width="48" height="48" viewBox="0 0 48 48" fill="none" xmlns="http://www.w3.org/2000/svg">
<path d="M37.3463 36.6341C35.4675 36.6341 33.7004 35.9026 32.3718 34.5746L25.1891 27.3917C24.6848 26.8861 23.8058 26.8876 23.3017 27.3917L16.0928 34.6008C14.7642 35.9288 12.9971 36.6603 11.1183 36.6603H9.70283L18.8 45.7573C21.6409 48.5982 26.2473 48.5982 29.0884 45.7573L38.2114 36.6341H37.3463Z" fill="#32BCAD"/>
<path d="M11.1182 11.2276C12.997 11.2276 14.7641 11.9591 16.0927 13.2871L23.3016 20.4973C23.8208 21.0167 24.6685 21.0186 25.189 20.4967L32.3717 13.3133C33.7003 11.9854 35.4673 11.2538 37.3461 11.2538H38.2113L29.0885 2.13088C26.2471 -0.710294 21.6408 -0.710294 18.7999 2.13088L9.70314 11.2276L11.1182 11.2276Z" fill="#32BCAD"/>
<path d="M45.7574 18.7997L40.2444 13.2867C40.123 13.3353 39.9915 13.3657 39.8528 13.3657H37.3462C36.0503 13.3657 34.7817 13.8913 33.866 14.8077L26.6835 21.9903C26.0114 22.6625 25.1282 22.9988 24.2458 22.9988C23.3626 22.9988 22.48 22.6625 21.808 21.991L14.5985 14.7814C13.6828 13.8649 12.4142 13.3394 11.1183 13.3394H8.03612C7.90466 13.3394 7.78182 13.3085 7.66584 13.2648L2.13088 18.7997C-0.710294 21.6409 -0.710294 26.2471 2.13088 29.0882L7.66562 34.623C7.78181 34.5793 7.90466 34.5483 8.03612 34.5483H11.1183C12.4142 34.5483 13.6828 34.0229 14.5985 33.1065L21.8074 25.8976C23.1104 24.5957 25.3818 24.5953 26.6835 25.8982L33.866 33.0803C34.7817 33.9966 36.0503 34.5223 37.3462 34.5223H39.8528C39.9915 34.5223 40.123 34.5526 40.2444 34.6012L45.7574 29.0882C48.5984 26.247 48.5984 21.6409 45.7574 18.7997Z" fill="#32BCAD"/>
</svg>
