<?xml version="1.0" encoding="UTF-8"?>
<svg width="50px" height="32px" viewBox="0 0 50 32" version="1.1" xmlns="http://www.w3.org/2000/svg" xmlns:xlink="http://www.w3.org/1999/xlink">
    <!-- Generator: Sketch 55.2 (78181) - https://sketchapp.com -->
    <title>card-visa</title>
    <desc>Created with Sketch.</desc>
    <g id="Page-1" stroke="none" stroke-width="1" fill="none" fill-rule="evenodd">
        <g id="MODULOS" transform="translate(-1282.000000, -5164.000000)">
            <g id="card-visa" transform="translate(1282.000000, 5164.000000)">
                <rect id="Rectangle" fill="#FFFFFF" x="0" y="0" width="49.7777778" height="32" rx="2"></rect>
                <g id="Group" transform="translate(4.740741, 9.481481)">
                    <polyline id="Fill-2" fill="#004F8B" points="14.6222222 12.8361701 16.7191582 0.23297668 20.0727946 0.23297668 17.9744444 12.8361701 14.6222222 12.8361701"></polyline>
                    <path d="M30.1377104,0.543209877 C29.4732997,0.287780521 28.4322559,0.0140027435 27.1319529,0.0140027435 C23.8183838,0.0140027435 21.4838721,1.72330316 21.4640741,4.17305898 C21.4454545,5.984 23.1306397,6.99437037 24.4026599,7.59721262 C25.7079125,8.21478189 26.1470034,8.60879012 26.1406397,9.16044993 C26.1323906,10.0052016 25.0981818,10.3912428 24.1342088,10.3912428 C22.7919529,10.3912428 22.0789899,10.2002743 20.9776094,9.72973388 L20.5453535,9.52934979 L20.0746801,12.3506612 C20.8581145,12.7024198 22.3066667,13.0073416 23.8103704,13.0230343 C27.3358249,13.0230343 29.6241414,11.3332894 29.650303,8.71719067 C29.6630303,7.28359945 28.7692929,6.19235117 26.8347475,5.29303704 C25.6624242,4.70999177 24.9445118,4.32081207 24.9520539,3.73052401 C24.9520539,3.20662826 25.5596633,2.64651852 26.8726936,2.64651852 C27.9693603,2.6291358 28.7636364,2.87394239 29.3825589,3.12937174 L29.683064,3.27471056 L30.1377104,0.543209877" id="Fill-3" fill="#004F8B"></path>
                    <path d="M38.7373401,0.245048011 L36.1459259,0.245048011 C35.343165,0.245048011 34.7423906,0.469333333 34.389798,1.29018381 L29.4091919,12.8402743 L32.9308754,12.8402743 C32.9308754,12.8402743 33.5066667,11.287177 33.6370034,10.9462826 C34.0218855,10.9462826 37.4426936,10.951594 37.9317508,10.951594 C38.0321549,11.3926804 38.3399663,12.8402743 38.3399663,12.8402743 L41.4517845,12.8402743 L38.7373401,0.245048011 M34.6021549,8.36832922 C34.8793266,7.64211797 35.9382828,4.84519067 35.9382828,4.84519067 C35.9182492,4.87874897 36.213569,4.11559945 36.3827946,3.64240329 L36.6095286,4.72906447 C36.6095286,4.72906447 37.2517845,7.73748148 37.3858923,8.36832922 L34.6021549,8.36832922" id="Fill-4" fill="#004F8B"></path>
                    <path d="M11.8094949,0.242150892 L8.52609428,8.83669684 L8.17632997,7.08997531 C7.56518519,5.07647737 5.66080808,2.89518793 3.53158249,1.80321536 L6.53380471,12.8253059 L10.0821212,12.8212016 L15.3618182,0.242150892 L11.8094949,0.242150892" id="Fill-5" fill="#004F8B"></path>
                    <path d="M5.48026936,0.23442524 L0.0725925926,0.23442524 L0.0296969697,0.49661454 C4.23700337,1.53981893 7.02074074,4.06079561 8.17632997,7.08997531 L7.00047138,1.29839232 C6.7973064,0.50023594 6.20855219,0.2621893 5.48026936,0.23442524" id="Fill-6" fill="#ED9F2D"></path>
                </g>
            </g>
        </g>
    </g>
</svg>